<svg width="24" height="24" viewBox="0 0 24 24" fill="none" xmlns="http://www.w3.org/2000/svg">
<mask id="path-1-inside-1_848_5915" fill="white">
<path d="M6.58931 4.5H17.4115C17.5313 4.49998 17.6494 4.52982 17.7561 4.58707C17.8629 4.64431 17.9552 4.72735 18.0257 4.82939L20.9275 9.03151C20.9791 9.10628 21.0045 9.19757 20.9994 9.28983C20.9942 9.3821 20.9589 9.46966 20.8994 9.53758L12.279 19.3713C12.2435 19.4119 12.2003 19.4443 12.1523 19.4664C12.1043 19.4886 12.0524 19.5 12 19.5C11.9476 19.5 11.8957 19.4886 11.8477 19.4664C11.7997 19.4443 11.7565 19.4119 11.721 19.3713L3.10062 9.53838C3.0411 9.47046 3.00577 9.38291 3.00065 9.29063C2.99553 9.19836 3.02093 9.10708 3.07253 9.03231L5.97508 4.83019C6.04553 4.72815 6.1379 4.64511 6.24465 4.58787C6.3514 4.53062 6.46951 4.49998 6.58931 4.5Z"/>
</mask>
<path d="M6.58931 4.5L6.58901 6.5H6.58931V4.5ZM17.4115 4.5V6.5H17.4117L17.4115 4.5ZM18.0257 4.82939L16.3798 5.96563L16.3799 5.96586L18.0257 4.82939ZM20.9275 9.03151L22.5735 7.89551L22.5732 7.89504L20.9275 9.03151ZM20.8994 9.53758L22.4033 10.856L22.4036 10.8556L20.8994 9.53758ZM12.279 19.3713L10.7751 18.0529L10.7747 18.0534L12.279 19.3713ZM11.721 19.3713L13.2253 18.0534L13.2249 18.0529L11.721 19.3713ZM3.10062 9.53838L1.59638 10.8564L1.59672 10.8568L3.10062 9.53838ZM3.07253 9.03231L1.42693 7.89564L1.42646 7.89631L3.07253 9.03231ZM5.97508 4.83019L7.62068 5.96686L7.62098 5.96643L5.97508 4.83019ZM6.58931 6.5H17.4115V2.5H6.58931V6.5ZM17.4117 6.5C17.1978 6.50003 16.9915 6.44648 16.8109 6.34962L18.7013 2.82452C18.3072 2.61316 17.8647 2.49993 17.4112 2.5L17.4117 6.5ZM16.8109 6.34962C16.6309 6.25308 16.4854 6.11866 16.3798 5.96563L19.6716 3.69315C19.425 3.33605 19.0948 3.03555 18.7013 2.82452L16.8109 6.34962ZM16.3799 5.96586L19.2817 10.168L22.5732 7.89504L19.6714 3.69292L16.3799 5.96586ZM19.2814 10.1675C19.0763 9.87033 18.9834 9.52148 19.0024 9.17899L22.9963 9.40068C23.0255 8.87365 22.8818 8.34223 22.5735 7.89551L19.2814 10.1675ZM19.0024 9.17899C19.0214 8.83631 19.1529 8.49601 19.3951 8.21954L22.4036 10.8556C22.7649 10.4433 22.967 9.9279 22.9963 9.40068L19.0024 9.17899ZM19.3954 8.2192L10.7751 18.0529L13.783 20.6897L22.4033 10.856L19.3954 8.2192ZM10.7747 18.0534C10.9202 17.8873 11.1028 17.748 11.3147 17.6503L12.99 21.2825C13.2979 21.1405 13.5668 20.9365 13.7834 20.6892L10.7747 18.0534ZM11.3147 17.6503C11.5269 17.5524 11.7606 17.5 12 17.5V21.5C12.3443 21.5 12.6817 21.4247 12.99 21.2825L11.3147 17.6503ZM12 17.5C12.2394 17.5 12.4731 17.5524 12.6853 17.6503L11.01 21.2825C11.3183 21.4247 11.6557 21.5 12 21.5V17.5ZM12.6853 17.6503C12.8972 17.748 13.0798 17.8873 13.2253 18.0534L10.2166 20.6892C10.4332 20.9365 10.7021 21.1405 11.01 21.2825L12.6853 17.6503ZM13.2249 18.0529L4.60452 8.21994L1.59672 10.8568L10.2171 20.6898L13.2249 18.0529ZM4.60486 8.22034C4.84711 8.49681 4.97855 8.83712 4.99757 9.17979L1.00372 9.40148C1.03299 9.92869 1.23508 10.4441 1.59638 10.8564L4.60486 8.22034ZM4.99757 9.17979C5.01658 9.52228 4.92368 9.87113 4.71859 10.1683L1.42646 7.89631C1.11818 8.34303 0.974466 8.87445 1.00372 9.40148L4.99757 9.17979ZM4.71812 10.169L7.62068 5.96686L4.32949 3.69352L1.42693 7.89564L4.71812 10.169ZM7.62098 5.96643C7.51534 6.11945 7.36987 6.25388 7.18986 6.35042L5.29945 2.82531C4.90593 3.03635 4.57572 3.33685 4.32919 3.69395L7.62098 5.96643ZM7.18986 6.35042C7.0172 6.44301 6.81178 6.50003 6.58901 6.5L6.5896 2.5C6.12724 2.49993 5.68561 2.61822 5.29945 2.82531L7.18986 6.35042Z" fill="#6B3BF8" mask="url(#path-1-inside-1_848_5915)"/>
</svg>
