<svg width="41" height="40" viewBox="0 0 41 40" fill="none" xmlns="http://www.w3.org/2000/svg">
<path d="M20.3334 18.5V30M20.3334 18.5C19.3904 18 16.2704 17 11.3334 17V28C13.6479 28 18.6879 28 20.3334 30M20.3334 18.5C21.2764 18 24.3964 17 29.3334 17V28C27.0189 28 21.9789 28 20.3334 30" stroke="#6B3BF8" stroke-width="2" stroke-linecap="round" stroke-linejoin="round"/>
<path d="M20.3334 18C22.5425 18 24.3334 16.2091 24.3334 14C24.3334 11.7909 22.5425 10 20.3334 10C18.1242 10 16.3334 11.7909 16.3334 14C16.3334 16.2091 18.1242 18 20.3334 18Z" stroke="#6B3BF8" stroke-width="2"/>
</svg>
