<svg width="41" height="40" viewBox="0 0 41 40" fill="none" xmlns="http://www.w3.org/2000/svg">
<path d="M14.6666 29V27C14.6666 25.9391 15.0881 24.9217 15.8382 24.1716C16.5883 23.4214 17.6058 23 18.6666 23H22.6666C23.7275 23 24.7449 23.4214 25.4951 24.1716C26.2452 24.9217 26.6666 25.9391 26.6666 27V29M16.6666 15C16.6666 16.0609 17.0881 17.0783 17.8382 17.8284C18.5883 18.5786 19.6058 19 20.6666 19C21.7275 19 22.7449 18.5786 23.4951 17.8284C24.2452 17.0783 24.6666 16.0609 24.6666 15C24.6666 13.9391 24.2452 12.9217 23.4951 12.1716C22.7449 11.4214 21.7275 11 20.6666 11C19.6058 11 18.5883 11.4214 17.8382 12.1716C17.0881 12.9217 16.6666 13.9391 16.6666 15Z" stroke="#6B3BF8" stroke-width="2" stroke-linecap="round" stroke-linejoin="round"/>
</svg>
