<svg width="20" height="21" viewBox="0 0 20 21" fill="none" xmlns="http://www.w3.org/2000/svg">
<path d="M7.09169 2.43701H12.9084C13.1017 2.43701 13.25 2.43701 13.38 2.44951C14.3034 2.54035 15.0592 3.09535 15.38 3.84285H4.62002C4.94085 3.09535 5.69669 2.54035 6.62002 2.44951C6.74835 2.43701 6.89669 2.43701 7.09169 2.43701ZM5.25835 4.70618C4.10002 4.70618 3.15002 5.40618 2.83335 6.33451C2.82641 6.35386 2.81974 6.37331 2.81335 6.39285C3.14502 6.29285 3.49085 6.22618 3.84002 6.18201C4.74002 6.06618 5.87835 6.06618 7.20002 6.06618H12.9434C14.265 6.06618 15.4025 6.06618 16.3034 6.18201C16.6534 6.22701 16.9984 6.29201 17.33 6.39285C17.324 6.37329 17.3176 6.35385 17.3109 6.33451C16.9942 5.40618 16.0442 4.70618 14.885 4.70618H5.25835Z" fill="#4F4F4F"/>
<path fill-rule="evenodd" clip-rule="evenodd" d="M12.7733 7.05566H7.22666C4.41499 7.05566 3.00832 7.05566 2.21832 7.87816C1.42832 8.70066 1.61416 9.97066 1.98666 12.5115L2.33832 14.9215C2.62999 16.914 2.77582 17.9107 3.52332 18.5073C4.27166 19.104 5.37332 19.104 7.57916 19.104H12.4208C14.6258 19.104 15.7292 19.104 16.4767 18.5073C17.2242 17.9107 17.37 16.914 17.6617 14.9215L18.0133 12.5123C18.3858 9.97066 18.5717 8.70066 17.7817 7.87816C16.9917 7.05566 15.585 7.05566 12.7733 7.05566ZM12.1508 13.9323C12.6167 13.644 12.6167 12.8973 12.1508 12.609L9.34166 10.8673C8.88916 10.5865 8.33332 10.9515 8.33332 11.529V15.0123C8.33332 15.5898 8.88916 15.954 9.34166 15.674L12.1508 13.9323Z" fill="#4F4F4F"/>
</svg>
